<svg xmlns="http://www.w3.org/2000/svg" width="64" height="49" fill="none">
    <path fill="#3A77FF" d="M41.593 1.98h-8.359V37.3h8.36zM15.71 5.085c-8.016 0-14.515 6.517-14.515 14.556S7.694 34.197 15.71 34.197 30.224 27.68 30.224 19.64c0-8.04-6.5-14.556-14.514-14.556m0 18.967a4.404 4.404 0 0 1-4.398-4.411 4.404 4.404 0 0 1 4.398-4.41 4.404 4.404 0 0 1 4.398 4.41 4.404 4.404 0 0 1-4.398 4.41M62.726 10.796h-5.551l-3.26 3.268-3.26-3.268h-5.55v5.662l3.212 3.22-3.212 3.223v5.582h5.629l3.182-3.191 3.18 3.19h5.63v-5.581l-3.213-3.222 3.213-3.221z"/><path fill="#17376D" d="M13.114 46.94V44.7c0-.475-.18-.853-.72-.853-.458 0-.91.39-.91 1.23v1.863h-.418V44.7c0-.475-.182-.853-.72-.853-.46 0-.913.39-.913 1.23v1.863h-.421v-2.577c0-.258 0-.523-.026-.793h.407v.568l.012.007c.135-.23.333-.654 1.06-.654.3 0 .792.124.899.714h.014c.15-.396.552-.714 1.085-.714.686 0 1.071.476 1.071 1.13v2.32h-.42M16.836 46.835a2.8 2.8 0 0 1-.986.185c-1.124 0-1.545-.754-1.545-1.765 0-1.032.572-1.764 1.43-1.764.96 0 1.352.767 1.352 1.672v.211h-2.323c0 .713.384 1.29 1.12 1.29.306 0 .752-.127.951-.251zm-.208-1.818c0-.588-.238-1.17-.864-1.17-.62 0-.999.614-.999 1.17zM21.99 46.94V44.7c0-.475-.179-.853-.717-.853-.46 0-.914.39-.914 1.23v1.863h-.418V44.7c0-.475-.18-.853-.719-.853-.46 0-.913.39-.913 1.23v1.863h-.418v-2.577c0-.258 0-.523-.026-.793h.404v.568l.014.007c.132-.23.331-.654 1.059-.654.3 0 .793.124.898.714h.013a1.14 1.14 0 0 1 1.086-.714c.686 0 1.072.476 1.072 1.13v2.32h-.42M23.395 41.984h.418v2.154h.014c.06-.165.394-.647 1.059-.647.999 0 1.4.74 1.4 1.765 0 .997-.468 1.764-1.4 1.764-.486 0-.833-.185-1.059-.615h-.014v.535h-.418zm1.423 1.864c-.766 0-1.006.793-1.006 1.408s.26 1.407 1.006 1.407c.8 0 1.007-.753 1.007-1.407 0-.655-.207-1.408-1.007-1.408M29.412 46.835a2.8 2.8 0 0 1-.985.185c-1.125 0-1.544-.754-1.544-1.765 0-1.032.572-1.764 1.43-1.764.959 0 1.352.767 1.352 1.672v.211h-2.323c0 .713.384 1.29 1.12 1.29.306 0 .751-.127.95-.251zm-.207-1.818c0-.588-.24-1.17-.865-1.17-.62 0-.998.614-.998 1.17zM30.465 44.323c0-.37 0-.508-.027-.753h.42v.648h.014c.152-.378.438-.727.873-.727.098 0 .218.02.29.04v.435c-.085-.026-.198-.04-.305-.04-.665 0-.847.742-.847 1.349v1.665h-.418zM35.858 43.49c1.1 0 1.586.847 1.586 1.764 0 .919-.486 1.765-1.586 1.765-1.098 0-1.585-.846-1.585-1.765s.488-1.764 1.585-1.764m0 3.173c.733 0 1.126-.627 1.126-1.408s-.393-1.408-1.126-1.408-1.124.627-1.124 1.408.393 1.408 1.124 1.408M38.521 43.927h-.687v-.356h.687v-.245c0-.708.025-1.42.899-1.42.13 0 .312.019.392.065l-.027.365a.74.74 0 0 0-.332-.073c-.573 0-.512.614-.512 1.017v.292h.765v.356h-.765v3.014h-.419v-3.014zM43.646 42.328h1.052l1.824 4.613H45.49l-.398-1.057h-1.886l-.408 1.057h-.964zm.514.925h-.014l-.673 1.903h1.36zM49.619 43.172a2.4 2.4 0 0 0-.943-.198c-.32 0-.733.14-.733.64 0 .8 2.038.464 2.038 2.01 0 1.012-.808 1.396-1.745 1.396-.505 0-.731-.067-1.192-.178l.087-.833c.318.172.684.284 1.051.284.354 0 .825-.179.825-.594 0-.88-2.036-.516-2.036-2.043 0-1.032.805-1.408 1.623-1.408q.603-.002 1.114.165zM51.672 43.054H50.34v-.727h3.597v.727h-1.332v3.886h-.933zM54.447 42.328h1.007c1 0 2.191-.034 2.191 1.25 0 .54-.367.99-.958 1.07v.013c.252.02.398.27.491.476l.747 1.804h-1.038l-.56-1.44c-.133-.344-.254-.476-.647-.476h-.3v1.916h-.932v-4.613m.932 1.97h.308c.458 0 .986-.066.986-.64 0-.557-.52-.603-.986-.603h-.308zM59.93 42.328h1.053l1.822 4.613h-1.032l-.4-1.057H59.49l-.406 1.057h-.966zm.51.925h-.012l-.673 1.903h1.358z"/>
</svg>