<svg width="100" height="21" viewBox="0 0 100 21" fill="none" xmlns="http://www.w3.org/2000/svg">
<g clip-path="url(#clip0_755_15229)">
<path d="M66.4769 0.00891113H83.8952V3.22387H76.9856V20.1373H73.5305V3.22387H66.4769V0.00891113Z" fill="white"/>
<path d="M37.8304 0.00891113V3.22387H23.8685V8.39575H35.0967V11.6107H23.8685V16.9224H37.8304V20.1373H20.4137V3.22387H20.4122V0.00891113H37.8304Z" fill="white"/>
<path d="M46.5279 0.0172729H42.0066L58.201 20.1457H62.7355L54.6373 10.0884L62.7226 0.0326297L58.201 0.039617L52.3736 7.27706L46.5279 0.0172729Z" fill="white"/>
<path d="M51.1675 14.3951L48.9033 11.5799L41.9937 20.161H46.5279L51.1675 14.3951Z" fill="white"/>
<path fill-rule="evenodd" clip-rule="evenodd" d="M20.5348 20.1373L4.31855 0.000488281H0V20.1289H3.45485V4.30293L16.1946 20.1373H20.5348Z" fill="white"/>
<path d="M84.6718 20.0143C84.4188 20.0143 84.2035 19.9267 84.0233 19.7514C83.8431 19.5761 83.754 19.3639 83.7563 19.1124C83.754 18.8679 83.8431 18.658 84.0233 18.4827C84.2035 18.3074 84.4188 18.2197 84.6718 18.2197C84.9152 18.2197 85.1282 18.3074 85.3084 18.4827C85.4911 18.658 85.5822 18.8679 85.5848 19.1124C85.5822 19.2785 85.5401 19.4307 85.4558 19.5668C85.3693 19.7053 85.2594 19.8137 85.1211 19.8921C84.9853 19.9728 84.8355 20.0143 84.6718 20.0143Z" fill="white"/>
<path d="M90.5685 11.5349H92.0995V17.4332C92.0972 17.9752 91.98 18.4389 91.7508 18.8287C91.519 19.2186 91.1982 19.5161 90.7863 19.726C90.3767 19.9336 89.8967 20.0397 89.3513 20.0397C88.8526 20.0397 88.4056 19.9498 88.0076 19.7745C87.6097 19.5992 87.2937 19.3362 87.0619 18.9902C86.8277 18.6442 86.713 18.2128 86.713 17.6961H88.2465C88.2487 17.9222 88.3003 18.1182 88.3985 18.282C88.4967 18.4458 88.6325 18.5703 88.8058 18.658C88.9812 18.7457 89.1827 18.7895 89.4097 18.7895C89.6556 18.7895 89.8663 18.7387 90.0371 18.6349C90.2079 18.5334 90.3391 18.3812 90.4305 18.1782C90.5193 17.9775 90.5663 17.7284 90.5685 17.4332V11.5349Z" fill="white"/>
<path d="M98.3987 13.8416C98.3614 13.484 98.1975 13.2049 97.9119 13.0065C97.6239 12.8058 97.2518 12.7067 96.7952 12.7067C96.4746 12.7067 96.1985 12.7551 95.969 12.8497C95.7396 12.9466 95.5617 13.0757 95.4398 13.2395C95.3183 13.4033 95.2574 13.5901 95.2525 13.8001C95.2525 13.9754 95.2947 14.1276 95.3766 14.2545C95.4586 14.3836 95.5685 14.4921 95.7114 14.5797C95.8518 14.6697 96.0086 14.7435 96.1797 14.8035C96.3528 14.8634 96.5261 14.9142 96.6992 14.9557L97.4975 15.1518C97.8183 15.2256 98.1297 15.3248 98.4269 15.4517C98.7241 15.5762 98.9934 15.7354 99.2297 15.9268C99.4662 16.1183 99.6535 16.349 99.7916 16.6189C99.9297 16.8887 100 17.2048 100 17.5692C100 18.0605 99.8736 18.4919 99.6183 18.8656C99.3632 19.237 98.9957 19.5276 98.5134 19.7376C98.0335 19.9452 97.453 20.0513 96.7695 20.0513C96.1094 20.0513 95.5335 19.9498 95.049 19.7468C94.5622 19.5461 94.1827 19.2508 93.9089 18.8633C93.635 18.4758 93.4876 18.0029 93.4665 17.447H94.9835C95.0046 17.7376 95.0982 17.9798 95.2574 18.1759C95.4188 18.3697 95.6294 18.5127 95.8871 18.6096C96.147 18.7041 96.4371 18.7526 96.7579 18.7526C97.0926 18.7526 97.3876 18.7018 97.6426 18.6026C97.8954 18.5034 98.0944 18.3651 98.2373 18.1851C98.3825 18.0075 98.4551 17.7976 98.4574 17.5577C98.4551 17.3386 98.3893 17.1563 98.2629 17.0133C98.1343 16.8703 97.9563 16.7503 97.7292 16.6535C97.5 16.5566 97.233 16.4689 96.9287 16.3928L95.9596 16.1483C95.2596 15.9707 94.7048 15.7008 94.2997 15.3386C93.8926 14.9765 93.6911 14.4967 93.6911 13.8946C93.6911 13.401 93.8269 12.9673 94.101 12.596C94.3723 12.2246 94.7447 11.9362 95.2152 11.7309C95.6881 11.5233 96.2218 11.4218 96.8162 11.4218C97.4203 11.4218 97.9492 11.5233 98.4058 11.7309C98.8622 11.9362 99.2206 12.2223 99.4802 12.5867C99.7401 12.9512 99.8759 13.3687 99.883 13.8416H98.3987Z" fill="white"/>
</g>
<defs>
<clipPath id="clip0_755_15229">
<rect width="100" height="20.3046" fill="white" transform="translate(0 0.000488281)"/>
</clipPath>
</defs>
</svg>
