<svg width="84" height="100" viewBox="0 0 84 100" fill="none" xmlns="http://www.w3.org/2000/svg">
<path d="M77.9509 13.2313C68.6601 -0.0588785 50.3089 -3.99819 37.0421 4.45131L13.7434 19.2955C12.176 20.2803 10.7138 21.4254 9.38346 22.7124C8.05144 23.9993 6.85796 25.4215 5.82138 26.9555C4.78481 28.4895 3.91015 30.127 3.21075 31.8412C2.51306 33.5563 1.99506 35.3391 1.66507 37.161C1.38966 38.6883 1.23943 40.2373 1.2194 41.7897C1.1977 43.3437 1.3062 44.8961 1.54155 46.4301C1.77691 47.9657 2.13913 49.4797 2.6232 50.9553C3.10726 52.4308 3.71318 53.863 4.43428 55.2384C3.93822 55.9923 3.48028 56.7706 3.0622 57.5703C2.64323 58.3699 2.26599 59.1911 1.93048 60.0291C1.59497 60.867 1.30286 61.7216 1.05415 62.5896C0.805436 63.4576 0.601793 64.3373 0.44155 65.2253C-0.22429 68.9596 -0.136321 72.7893 0.700276 76.4891C1.11758 78.3335 1.71682 80.1329 2.49133 81.8589C3.26584 83.5848 4.20894 85.2307 5.31061 86.7697C14.6014 100.06 32.9509 103.999 46.2177 95.5497L69.5164 80.7672C71.0838 79.7807 72.5427 78.634 73.873 77.3454C75.2032 76.0577 76.3964 74.6358 77.4334 73.1022C78.47 71.5699 79.3447 69.9324 80.0441 68.2182C80.7435 66.5056 81.2626 64.7229 81.5948 62.9018C81.8702 61.3744 82.0187 59.8271 82.0388 58.2747C82.0588 56.7224 81.9503 55.17 81.7133 53.636C81.4779 52.102 81.1157 50.5897 80.63 49.1141C80.1442 47.6402 79.5383 46.2081 78.8172 44.8326C79.313 44.0798 79.772 43.3003 80.191 42.5008C80.6083 41.7012 80.9872 40.88 81.3227 40.042C81.6582 39.2041 81.952 38.3495 82.2023 37.4815C82.4511 36.6152 82.658 35.7355 82.8199 34.8475C83.1505 32.9846 83.294 31.0934 83.2506 29.2022C83.2072 27.311 82.9752 25.4298 82.5579 23.5837C82.1406 21.7392 81.5413 19.9398 80.7668 18.2139C79.9933 16.4876 79.05 14.8426 77.9509 13.3031" fill="#FF3E00"/>
<path d="M34.7655 88.055C32.942 88.5287 31.0569 88.7212 29.1753 88.6259C27.2941 88.529 25.438 88.1485 23.672 87.4925C21.9059 86.8375 20.25 85.9172 18.7612 84.7633C17.2736 83.6087 15.9706 82.2342 14.897 80.6871C14.2343 79.7607 13.6668 78.7726 13.2027 77.7343C12.7374 76.6967 12.3767 75.6153 12.1261 74.5061C11.8774 73.3961 11.7372 72.2643 11.7122 71.1276C11.6871 69.9909 11.7756 68.8542 11.9759 67.7341C12.0076 67.5522 12.0443 67.3702 12.0844 67.19C12.1228 67.008 12.1662 66.8277 12.2129 66.6491C12.258 66.4689 12.3081 66.2903 12.3615 66.1117C12.4132 65.9347 12.47 65.7578 12.5284 65.5825L12.9674 64.2421L14.1642 65.1352C14.8502 65.6359 15.558 66.1083 16.2841 66.549C17.0102 66.9913 17.7547 67.402 18.5158 67.7792C19.2753 68.1581 20.0531 68.5053 20.8427 68.8174C21.6322 69.1312 22.4351 69.41 23.2497 69.6554L24.1427 69.9141L24.0626 70.8071C24.0195 71.4149 24.0828 72.0255 24.2495 72.6115C24.3313 72.9053 24.4398 73.1891 24.5717 73.4628C24.7035 73.7366 24.8588 73.9986 25.0357 74.2457C25.3599 74.7116 25.7534 75.1254 26.2025 75.4725C26.6498 75.8197 27.1489 76.0968 27.6814 76.2938C28.2139 76.4908 28.7714 76.6043 29.3389 76.6326C29.9048 76.6627 30.4723 76.6043 31.0214 76.4607C31.1483 76.4273 31.2718 76.3889 31.3953 76.3455C31.5189 76.3021 31.6407 76.2554 31.7592 76.202C31.8794 76.1502 31.9963 76.0935 32.1131 76.0317C32.2283 75.9716 32.3401 75.9065 32.4503 75.8364L55.7139 60.9905C55.9991 60.8117 56.2648 60.6036 56.5068 60.3696C56.7488 60.1342 56.9641 59.8755 57.1528 59.5968C57.3414 59.318 57.4983 59.0192 57.6251 58.7071C57.7503 58.3949 57.8438 58.0711 57.9039 57.7406C57.9623 57.4018 57.9874 57.0596 57.979 56.7157C57.9707 56.3735 57.9273 56.033 57.8505 55.6975C57.7754 55.3637 57.6652 55.0382 57.5233 54.7244C57.3831 54.4122 57.2095 54.1151 57.0092 53.8363C56.6854 53.3706 56.2931 52.9583 55.8441 52.6112C55.3951 52.264 54.896 51.9869 54.3652 51.7899C53.8332 51.5929 53.2743 51.4781 52.7077 51.4494C52.1402 51.421 51.5726 51.4794 51.0235 51.6213C50.8983 51.6547 50.7731 51.6931 50.6496 51.7365C50.526 51.7799 50.4059 51.8266 50.2857 51.8784C50.1655 51.9318 50.0487 51.9885 49.9335 52.0503C49.8183 52.1104 49.7048 52.1772 49.5946 52.2473L40.6611 57.9192C40.2972 58.1496 39.9233 58.3666 39.5427 58.5702C39.1605 58.7722 38.7732 58.9608 38.3776 59.1344C37.982 59.308 37.5797 59.4666 37.1724 59.6084C36.7652 59.752 36.3529 59.8789 35.9356 59.9907C34.1145 60.4614 32.2333 60.6517 30.3554 60.5549C28.4776 60.4581 26.6264 60.0758 24.8638 59.4232C23.1011 58.7688 21.4486 57.8491 19.963 56.6974C18.4774 55.5456 17.1754 54.1752 16.1021 52.6312C15.4428 51.7048 14.877 50.7149 14.4146 49.6767C13.9505 48.6384 13.5917 47.5568 13.343 46.4485C13.0942 45.3384 12.9574 44.2067 12.934 43.07C12.909 41.9349 12.9974 40.7982 13.1994 39.6798C13.594 37.4779 14.4434 35.3825 15.6932 33.5272C16.9439 31.6719 18.5682 30.0982 20.4621 28.9068L43.7975 14.0626C44.1597 13.8322 44.5303 13.6152 44.9092 13.4116C45.2881 13.2096 45.6754 13.021 46.0676 12.8474C46.4607 12.6737 46.8605 12.5156 47.2661 12.3734C47.67 12.2298 48.0807 12.1013 48.4963 11.9894C50.3191 11.5171 52.2036 11.3234 54.0831 11.4186C55.9643 11.5154 57.8188 11.896 59.5848 12.552C61.3508 13.2063 63.005 14.1277 64.4939 15.2811C65.981 16.4364 67.2834 17.8115 68.3564 19.359C69.0174 20.2837 69.5866 21.2719 70.0523 22.3101C70.518 23.3484 70.8786 24.4283 71.1306 25.5384C71.381 26.6484 71.5212 27.7801 71.5463 28.9168C71.573 30.0536 71.4862 31.1903 71.2859 32.3103C71.2508 32.4939 71.2141 32.6775 71.1724 32.8595C71.1323 33.0414 71.0889 33.2234 71.0422 33.4036C70.9971 33.5856 70.947 33.7659 70.8953 33.9445C70.8435 34.1247 70.7901 34.3033 70.7317 34.4803L70.286 35.8206L69.0975 34.9276C68.4098 34.4219 67.7004 33.9478 66.9727 33.5021C66.2449 33.0581 65.4971 32.6442 64.7343 32.2619C63.2071 31.5001 61.6185 30.868 59.9854 30.3724L59.0907 30.1136L59.1725 29.2206C59.1975 28.9152 59.1959 28.608 59.1675 28.3042C59.1408 28.0004 59.0857 27.6983 59.0056 27.4029C58.9238 27.1091 58.8186 26.8203 58.6868 26.5449C58.5566 26.2678 58.4013 26.0041 58.2244 25.7537C57.8987 25.2962 57.5053 24.8909 57.0576 24.5519C56.6106 24.2112 56.1141 23.941 55.5854 23.7506C54.5229 23.3652 53.3681 23.3134 52.2754 23.6021C52.1485 23.6355 52.0233 23.6739 51.9015 23.7156C51.7779 23.759 51.6561 23.8074 51.5359 23.8591C51.4174 23.9109 51.2989 23.9693 51.1837 24.0294C51.0685 24.0912 50.955 24.1563 50.8449 24.2264L27.5378 39.0455C27.2541 39.2241 26.9887 39.4328 26.7483 39.6665C26.5079 39.9002 26.2909 40.1589 26.1023 40.436C25.9153 40.7147 25.757 41.0117 25.6299 41.3223C25.5031 41.6345 25.4096 41.9566 25.3495 42.2871C25.2911 42.626 25.266 42.9698 25.2744 43.3137C25.2944 44.002 25.4492 44.6797 25.7301 45.3084C25.8717 45.6214 26.0433 45.9199 26.2425 46.1997C26.5647 46.6604 26.9553 47.0711 27.401 47.4149C27.8457 47.7604 28.3405 48.0362 28.8682 48.2328C29.9294 48.6273 31.0852 48.6908 32.1832 48.4148C32.3084 48.3797 32.4336 48.3413 32.5571 48.2979C32.679 48.2545 32.8008 48.2061 32.921 48.1544C33.0406 48.1024 33.1581 48.0456 33.2732 47.9841C33.3884 47.924 33.5019 47.8589 33.612 47.7888L42.5456 42.1269C42.9112 41.8932 43.2834 41.6729 43.6656 41.4692C44.0462 41.2639 44.4351 41.0753 44.8324 40.9C45.2284 40.7263 45.6309 40.5682 46.0392 40.426C46.4482 40.2824 46.8621 40.1556 47.2811 40.0454C49.1039 39.5713 50.9867 39.3777 52.8679 39.4712C54.7491 39.5663 56.6036 39.9469 58.3696 40.6012C60.1339 41.2556 61.7898 42.1753 63.2771 43.3304C64.766 44.4838 66.068 45.8576 67.1412 47.4049C67.8022 48.3313 68.3698 49.3195 68.8355 50.3577C69.3012 51.3954 69.6624 52.4768 69.9138 53.586C70.1642 54.6943 70.3044 55.826 70.3311 56.9628C70.3578 58.1012 70.2693 59.2379 70.0707 60.3562C69.8739 61.4543 69.5634 62.5289 69.1443 63.5628C68.7255 64.5969 68.1996 65.5843 67.5752 66.5089C66.9526 67.4337 66.2349 68.2916 65.4337 69.0678C64.6324 69.844 63.7528 70.535 62.808 71.1293L39.4993 85.9735C39.1338 86.2055 38.7599 86.4242 38.3793 86.6278C37.997 86.8315 37.6081 87.0201 37.2108 87.1937C36.8152 87.3689 36.413 87.5275 36.004 87.6711C35.5967 87.8146 35.1828 87.9432 34.7655 88.055Z" fill="white"/>
</svg>
